<?xml version="1.0" encoding="UTF-8"?>
<svg xmlns="http://www.w3.org/2000/svg" xmlns:xlink="http://www.w3.org/1999/xlink" width="64px" height="64px" viewBox="0 0 64 64" version="1.1">
<g id="surface1">
<path style=" stroke:none;fill-rule:nonzero;fill:rgb(0%,0%,0%);fill-opacity:1;" d="M 48.992188 9.484375 C 48.914062 9.554688 48.019531 10.105469 46.988281 10.695312 C 45.964844 11.296875 42.546875 13.273438 39.410156 15.105469 C 36.269531 16.933594 33.398438 18.609375 33.011719 18.824219 C 32.640625 19.039062 32.234375 19.277344 32.117188 19.355469 C 31.941406 19.472656 31.765625 19.394531 30.347656 18.566406 C 29.492188 18.054688 27.503906 16.90625 25.929688 15.988281 C 24.363281 15.074219 21.921875 13.65625 20.515625 12.839844 C 19.109375 12.023438 17.21875 10.921875 16.324219 10.402344 C 15.417969 9.878906 14.660156 9.445312 14.632812 9.445312 C 14.601562 9.445312 14.386719 9.789062 14.148438 10.203125 C 13.914062 10.628906 12.566406 12.941406 11.167969 15.351562 C 9.769531 17.761719 7.605469 21.5 6.347656 23.664062 C 5.085938 25.832031 3.5625 28.46875 2.953125 29.519531 C 2.34375 30.574219 1.761719 31.558594 1.683594 31.714844 C 1.542969 31.949219 1.542969 32 1.671875 32.078125 C 1.75 32.136719 3.238281 33.003906 4.96875 34.015625 C 6.699219 35.019531 8.894531 36.300781 9.839844 36.851562 C 10.785156 37.402344 13.226562 38.828125 15.253906 40 C 17.277344 41.179688 18.953125 42.175781 18.972656 42.214844 C 18.980469 42.242188 19 45.019531 19.019531 48.375 L 19.039062 54.464844 L 32.109375 54.496094 L 45.167969 54.515625 L 45.167969 41.96875 L 48 40.324219 C 52.851562 37.511719 62.238281 32.050781 62.269531 32.019531 C 62.289062 32.011719 61.824219 31.164062 61.226562 30.140625 C 60.632812 29.125 59.335938 26.894531 58.351562 25.191406 C 57.359375 23.488281 55.28125 19.898438 53.726562 17.21875 C 52.171875 14.542969 50.558594 11.75 50.136719 11.019531 C 49.113281 9.25 49.171875 9.328125 48.992188 9.484375 Z M 21.273438 16.707031 C 24.324219 18.480469 27.492188 20.328125 28.320312 20.800781 C 29.136719 21.285156 29.816406 21.71875 29.816406 21.765625 C 29.816406 21.816406 29.265625 22.789062 28.59375 23.941406 C 27.925781 25.09375 27.140625 26.449219 26.84375 26.960938 C 26.546875 27.472656 25.160156 29.863281 23.765625 32.277344 C 22.367188 34.6875 20.910156 37.1875 20.546875 37.835938 C 20.171875 38.484375 19.828125 39.054688 19.789062 39.09375 C 19.75 39.132812 19.335938 38.957031 18.882812 38.691406 C 18.429688 38.425781 17.257812 37.746094 16.285156 37.175781 C 15.3125 36.605469 12.546875 35 10.136719 33.605469 C 7.722656 32.207031 5.71875 31.027344 5.65625 30.976562 C 5.597656 30.925781 5.609375 30.828125 5.679688 30.699219 C 5.746094 30.601562 6.367188 29.53125 7.066406 28.320312 C 7.765625 27.109375 9.367188 24.355469 10.628906 22.1875 C 11.878906 20.023438 13.53125 17.179688 14.289062 15.863281 C 15.046875 14.554688 15.683594 13.480469 15.703125 13.480469 C 15.722656 13.480469 18.234375 14.9375 21.273438 16.707031 Z M 53.273438 22.328125 C 56.011719 27.058594 58.242188 30.9375 58.234375 30.945312 C 58.214844 30.957031 55.746094 32.394531 52.742188 34.144531 C 49.742188 35.886719 46.5625 37.738281 45.679688 38.257812 C 44.800781 38.769531 44.0625 39.171875 44.042969 39.152344 C 44.023438 39.132812 43.128906 37.589844 42.046875 35.71875 C 40.964844 33.851562 38.691406 29.945312 37.007812 27.03125 C 35.316406 24.117188 33.949219 21.71875 33.96875 21.707031 C 33.976562 21.6875 36.878906 20.003906 40.394531 17.957031 C 43.917969 15.910156 47.074219 14.070312 47.429688 13.863281 C 47.921875 13.570312 48.089844 13.511719 48.175781 13.609375 C 48.234375 13.667969 50.527344 17.59375 53.273438 22.328125 Z M 34.382812 28.410156 L 36.488281 32.03125 L 31.949219 32.058594 C 29.460938 32.070312 27.40625 32.058594 27.375 32.039062 C 27.355469 32.011719 27.730469 31.3125 28.222656 30.484375 C 28.703125 29.65625 29.6875 27.957031 30.40625 26.714844 C 31.125 25.464844 31.765625 24.394531 31.8125 24.324219 C 31.941406 24.167969 31.785156 23.921875 34.382812 28.410156 Z M 38.296875 35.199219 C 38.375 35.296875 39.292969 36.839844 40.324219 38.640625 L 42.214844 41.910156 L 42.195312 46.710938 L 42.164062 51.511719 L 32.109375 51.542969 L 22.042969 51.5625 L 22.042969 41.121094 L 23.28125 38.988281 C 23.96875 37.816406 24.765625 36.4375 25.0625 35.9375 L 25.59375 35.03125 L 31.871094 35.03125 C 37.726562 35.03125 38.160156 35.039062 38.296875 35.199219 Z M 38.296875 35.199219 "/>
</g>
</svg>
