<?xml version="1.0" encoding="UTF-8"?>
<svg xmlns="http://www.w3.org/2000/svg" xmlns:xlink="http://www.w3.org/1999/xlink" width="160px" height="160px" viewBox="0 0 160 160" version="1.1">
<g id="surface1">
<path style=" stroke:none;fill-rule:nonzero;fill:rgb(0%,0%,0%);fill-opacity:1;" d="M 122.484375 23.714844 C 122.289062 23.886719 120.050781 25.265625 117.464844 26.742188 C 114.90625 28.242188 106.371094 33.1875 98.523438 37.761719 C 90.675781 42.335938 83.492188 46.519531 82.535156 47.058594 C 81.597656 47.601562 80.589844 48.191406 80.296875 48.390625 C 79.851562 48.683594 79.410156 48.488281 75.867188 46.421875 C 73.726562 45.140625 68.757812 42.261719 64.820312 39.976562 C 60.910156 37.6875 54.808594 34.144531 51.292969 32.101562 C 47.773438 30.0625 43.050781 27.304688 40.8125 26.003906 C 38.546875 24.699219 36.65625 23.617188 36.582031 23.617188 C 36.507812 23.617188 35.964844 24.476562 35.375 25.511719 C 34.785156 26.566406 31.414062 32.347656 27.921875 38.375 C 24.429688 44.402344 19.015625 53.75 15.867188 59.164062 C 12.71875 64.574219 8.90625 71.167969 7.378906 73.800781 C 5.855469 76.433594 4.402344 78.894531 4.207031 79.285156 C 3.863281 79.878906 3.863281 80 4.183594 80.195312 C 4.378906 80.34375 8.09375 82.507812 12.421875 85.042969 C 16.753906 87.550781 22.238281 90.75 24.601562 92.128906 C 26.960938 93.503906 33.0625 97.074219 38.128906 100 C 43.199219 102.953125 47.378906 105.4375 47.429688 105.535156 C 47.453125 105.609375 47.503906 112.546875 47.550781 120.933594 L 47.601562 136.164062 L 80.269531 136.234375 L 112.914062 136.285156 L 112.914062 104.921875 L 120 100.8125 C 132.128906 93.777344 155.597656 80.121094 155.671875 80.050781 C 155.71875 80.023438 154.5625 77.910156 153.0625 75.351562 C 151.585938 72.816406 148.339844 67.234375 145.878906 62.976562 C 143.394531 58.722656 138.203125 49.742188 134.316406 43.050781 C 130.429688 36.359375 126.394531 29.371094 125.339844 27.550781 C 122.78125 23.125 122.925781 23.320312 122.484375 23.714844 Z M 53.1875 41.769531 C 60.8125 46.199219 68.734375 50.824219 70.800781 52.003906 C 72.839844 53.210938 74.539062 54.292969 74.539062 54.414062 C 74.539062 54.539062 73.160156 56.972656 71.488281 59.851562 C 69.816406 62.730469 67.847656 66.125 67.109375 67.40625 C 66.371094 68.683594 62.902344 74.660156 59.410156 80.6875 C 55.917969 86.714844 52.277344 92.964844 51.367188 94.589844 C 50.429688 96.210938 49.570312 97.636719 49.472656 97.738281 C 49.371094 97.835938 48.339844 97.390625 47.207031 96.726562 C 46.078125 96.0625 43.148438 94.367188 40.714844 92.941406 C 38.277344 91.511719 31.367188 87.503906 25.339844 84.011719 C 19.3125 80.515625 14.292969 77.566406 14.144531 77.441406 C 13.996094 77.320312 14.023438 77.074219 14.195312 76.753906 C 14.367188 76.507812 15.917969 73.824219 17.664062 70.800781 C 19.410156 67.773438 23.417969 60.886719 26.566406 55.472656 C 29.691406 50.0625 33.824219 42.953125 35.71875 39.65625 C 37.613281 36.382812 39.210938 33.703125 39.261719 33.703125 C 39.3125 33.703125 45.585938 37.34375 53.1875 41.769531 Z M 133.1875 55.816406 C 140.023438 67.652344 145.609375 77.34375 145.585938 77.367188 C 145.535156 77.390625 139.359375 80.984375 131.855469 85.363281 C 124.355469 89.71875 116.410156 94.34375 114.195312 95.644531 C 112.003906 96.925781 110.160156 97.933594 110.109375 97.882812 C 110.0625 97.835938 107.824219 93.972656 105.117188 89.300781 C 102.410156 84.625 96.726562 74.859375 92.523438 67.578125 C 88.289062 60.296875 84.871094 54.292969 84.921875 54.269531 C 84.945312 54.21875 92.203125 50.011719 100.984375 44.894531 C 109.789062 39.777344 117.6875 35.179688 118.574219 34.660156 C 119.804688 33.921875 120.222656 33.777344 120.441406 34.023438 C 120.589844 34.167969 126.320312 43.984375 133.1875 55.816406 Z M 85.953125 71.019531 L 91.21875 80.074219 L 79.878906 80.148438 C 73.652344 80.171875 68.511719 80.148438 68.4375 80.097656 C 68.390625 80.023438 69.324219 78.277344 70.554688 76.210938 C 71.757812 74.144531 74.21875 69.890625 76.015625 66.789062 C 77.8125 63.664062 79.410156 60.984375 79.53125 60.8125 C 79.851562 60.417969 79.457031 59.804688 85.953125 71.019531 Z M 95.746094 87.996094 C 95.941406 88.242188 98.230469 92.101562 100.8125 96.605469 L 105.535156 104.773438 L 105.484375 116.777344 L 105.410156 128.78125 L 80.269531 128.855469 L 55.105469 128.90625 L 55.105469 102.804688 L 58.203125 97.464844 C 59.925781 94.539062 61.917969 91.09375 62.65625 89.839844 L 63.984375 87.578125 L 79.679688 87.578125 C 94.316406 87.578125 95.398438 87.601562 95.746094 87.996094 Z M 95.746094 87.996094 "/>
</g>
</svg>
